<?xml version="1.0" standalone="no"?>
<!DOCTYPE svg PUBLIC "-//W3C//DTD SVG 20010904//EN"
 "http://www.w3.org/TR/2001/REC-SVG-20010904/DTD/svg10.dtd">
<svg version="1.0" xmlns="http://www.w3.org/2000/svg"
 width="256.000000pt" height="256.000000pt" viewBox="0 0 256.000000 256.000000"
 preserveAspectRatio="xMidYMid meet">
<metadata>
Created by potrace 1.14, written by Peter Selinger 2001-2017
</metadata>
<g transform="translate(0.000000,256.000000) scale(0.100000,-0.100000)"
fill="#000000" stroke="none">
<path d="M0 1280 l0 -1280 1280 0 1280 0 0 1280 0 1280 -1280 0 -1280 0 0
-1280z m1908 714 c21 -14 22 -22 22 -150 l0 -134 -800 0 -800 0 0 134 c0 128
1 136 22 150 20 14 110 16 778 16 668 0 758 -2 778 -16z m22 -564 c0 -133 -4
-230 -9 -230 -5 0 -16 -3 -25 -6 -13 -5 -16 2 -16 40 0 42 -2 46 -25 46 -24 0
-25 -3 -25 -54 0 -51 -2 -56 -34 -75 -54 -34 -110 -102 -136 -165 -24 -56 -25
-57 -55 -51 -57 13 -70 11 -73 -12 -2 -14 2 -23 10 -23 7 0 30 -5 51 -11 l37
-10 0 -74 0 -75 -50 0 c-47 0 -50 -2 -50 -25 0 -23 3 -25 50 -25 l50 0 0 -65
0 -65 -628 0 c-552 0 -630 2 -650 16 l-22 15 0 540 0 539 800 0 800 0 0 -230z
m28 -694 c-2 -200 -6 -368 -10 -372 -25 -25 -152 57 -184 117 -15 29 -14 30
16 41 21 7 29 15 26 25 -3 8 -6 18 -6 23 0 5 -15 4 -32 -1 -18 -5 -34 -9 -35
-9 -2 0 -3 27 -3 60 l0 60 35 0 c31 0 35 3 35 25 0 22 -4 25 -35 25 l-35 0 0
60 c0 33 1 60 3 60 1 0 17 -4 35 -9 17 -5 32 -6 32 -1 0 5 3 15 6 24 4 11 -5
18 -34 26 l-40 10 11 36 c23 74 129 163 195 164 l23 0 -3 -364z m127 345 c50
-22 117 -97 132 -145 l11 -36 -40 -10 c-29 -8 -38 -15 -34 -26 3 -9 6 -19 6
-24 0 -5 15 -4 32 1 18 5 34 9 35 9 2 0 3 -27 3 -60 l0 -60 -35 0 c-31 0 -35
-3 -35 -25 0 -22 4 -25 35 -25 l35 0 0 -53 c0 -30 -3 -56 -6 -59 -3 -4 -19 -2
-35 2 -16 5 -29 5 -29 0 0 -5 -3 -15 -6 -23 -3 -10 5 -18 26 -25 30 -11 31
-12 16 -41 -32 -60 -159 -142 -184 -117 -4 4 -8 172 -10 372 l-3 364 23 0 c13
0 41 -9 63 -19z"/>
<path d="M1289 1879 c-8 -16 -8 -28 0 -45 15 -34 67 -34 82 0 16 35 -3 66 -41
66 -20 0 -33 -7 -41 -21z"/>
<path d="M1489 1879 c-8 -16 -8 -28 0 -45 15 -34 67 -34 82 0 16 35 -3 66 -41
66 -20 0 -33 -7 -41 -21z"/>
<path d="M1689 1879 c-8 -16 -8 -28 0 -45 15 -34 67 -34 82 0 16 35 -3 66 -41
66 -20 0 -33 -7 -41 -21z"/>
</g>
</svg>
